<svg baseProfile="tiny" xmlns="http://www.w3.org/2000/svg" width="256.65" height="28.63"><path fill="#001D77" d="M58.15 14.29v.54c0 3.73-2.63 6.59-6.43 6.59s-6.86-3.28-6.86-7.04c0-3.91 3.13-7.12 7.04-7.12 2.11 0 4.2.96 5.53 2.63l-1.19 1.14c-.97-1.33-2.61-2.22-4.27-2.22-3.04 0-5.42 2.47-5.42 5.51 0 2.85 2.34 5.55 5.28 5.55 2.11 0 4.38-1.82 4.45-4.04h-3.51v-1.55h5.38zm11.67 3.74l-1.55 3.4h-1.82l6.48-14.15 6.48 14.15H77.6l-1.55-3.4h-6.23zm3.11-7.05l-2.41 5.49h4.83l-2.42-5.49zm17.76 10.45h-1.76V8.93h-3.35V7.32h8.46v1.61h-3.35zm12.3-14.11h7.58v1.61h-5.82v3.95h5.65v1.61h-5.65v5.33h5.82v1.61h-7.58zm21.6 9.54l3.99-9.57 3.99 9.57 3.95-9.54h1.91l-5.86 14.11-3.99-9.52-3.99 9.52-5.85-14.11h1.91zm22.74 1.17l-1.55 3.4h-1.82l6.48-14.15 6.48 14.15h-1.82l-1.55-3.4h-6.22zm3.11-7.05l-2.41 5.49h4.83l-2.42-5.49zm12.13-3.66h2.02l3.46 6.02 3.47-6.02h2.02l-4.61 7.97v6.14h-1.76v-6.14zm28.51 10.7l-1.55 3.41h-1.82l6.49-14.16 6.49 14.16h-1.82l-1.55-3.41h-6.24zm3.12-7.04l-2.42 5.5h4.83l-2.41-5.5zm24.27 10.45h-2.14l-4.17-5.99h-.73v5.99h-1.77V7.26h2.14c1.26 0 2.61.02 3.74.66 1.18.7 1.86 2.03 1.86 3.38 0 2.03-1.35 3.72-3.4 3.96l4.47 6.17zm-7.05-7.46h.56c1.8 0 3.76-.34 3.76-2.59 0-2.22-2.1-2.54-3.85-2.54h-.47v5.13zm43.46-.99V7.26h1.77v14.17h-1.77v-6.8h-6.74v6.8h-1.77V7.26h1.77v5.72zm-17.87 7.5c-1.04.61-2.38.95-3.56.95-3.87 0-7.07-3.08-7.07-7 0-4.01 3.22-7.15 7.22-7.15 1.19 0 2.39.29 3.42.92l-.78 1.39c-.85-.5-1.84-.76-2.8-.76-3.04 0-5.36 2.54-5.36 5.54 0 2.97 2.3 5.51 5.33 5.51 1 0 1.98-.29 2.83-.81l.77 1.41zM3.44 28.14l.16.22c.12.16.33.27.54.27.34 0 .62-.26.65-.6l.04-.51c.33-3.54.93-7.22 1.73-10.63 3.79.07 8.24 1.57 13.23 4.43 4.7 2.71 8.4 5.75 9.76 6.92l.25.22c.12.11.27.16.43.16a.658.658 0 0 0 .66-.71l-.05-.52c-.27-2.8-1.12-10.01-3.32-16.43C25.08 3.83 21.72.14 17.54 0h-.4c-2.33 0-4.43 1.09-6.25 3.23-1.51 1.78-2.81 4.27-3.96 7.6a56.37 56.37 0 0 0-1.39 4.75c-2.02.08-3.51.57-4.43 1.46-.92.89-1.27 2.11-1.06 3.73.27 2.04 1.54 4.79 3.39 7.37m4.73-16.87c1.1-3.18 2.32-5.53 3.73-7.19 1.55-1.84 3.32-2.77 5.24-2.77h.38c3.57.12 6.52 3.51 8.77 10.08 1.89 5.53 2.77 11.61 3.15 15.04-1.79-1.47-5.04-3.97-8.99-6.24-5.05-2.91-9.61-4.45-13.56-4.6.4-1.57.83-3.03 1.28-4.32m-6.14 6.72c.63-.62 1.71-.98 3.2-1.08a81.89 81.89 0 0 0-1.55 9.23c-1.28-2.03-2.12-4.02-2.32-5.53-.16-1.17.06-2.03.67-2.62"/></svg>