<?xml version="1.0" encoding="utf-8"?>
<!-- Generator: Adobe Illustrator 16.0.0, SVG Export Plug-In . SVG Version: 6.00 Build 0)  -->
<!DOCTYPE svg PUBLIC "-//W3C//DTD SVG 1.1//EN" "http://www.w3.org/Graphics/SVG/1.1/DTD/svg11.dtd">
<svg version="1.1" id="Layer_1" xmlns="http://www.w3.org/2000/svg" xmlns:xlink="http://www.w3.org/1999/xlink" x="0px" y="0px"
	 width="30.902px" height="28.629px" viewBox="-0.01 0 30.902 28.629" enable-background="new -0.01 0 30.902 28.629"
	 xml:space="preserve">
<path fill="#001D77" d="M3.44,28.14l0.16,0.22c0.12,0.16,0.33,0.27,0.54,0.27c0.34,0,0.619-0.26,0.649-0.6l0.04-0.51
	c0.33-3.54,0.93-7.221,1.73-10.63c3.79,0.069,8.239,1.569,13.229,4.43c4.7,2.71,8.4,5.75,9.76,6.921l0.25,0.219
	c0.12,0.11,0.271,0.16,0.431,0.16c0.363,0.002,0.659-0.29,0.662-0.654c0-0.018-0.001-0.037-0.002-0.055L30.84,27.39
	c-0.27-2.8-1.119-10.011-3.319-16.43C25.08,3.83,21.72,0.14,17.54,0H17.14c-2.33,0-4.431,1.09-6.25,3.23
	C9.38,5.01,8.08,7.5,6.93,10.83c-0.533,1.562-0.997,3.147-1.391,4.75c-2.02,0.08-3.51,0.569-4.43,1.459
	C0.19,17.93-0.16,19.15,0.05,20.77C0.32,22.81,1.59,25.56,3.44,28.14 M8.17,11.27c1.101-3.18,2.32-5.53,3.73-7.19
	c1.55-1.84,3.32-2.77,5.24-2.77h0.38c3.569,0.12,6.52,3.51,8.77,10.08C28.18,16.92,29.06,23,29.44,26.43
	c-1.79-1.471-5.04-3.971-8.99-6.24c-5.05-2.91-9.61-4.449-13.56-4.6C7.29,14.02,7.72,12.56,8.17,11.27 M2.03,17.991
	c0.63-0.621,1.71-0.98,3.2-1.08c-0.692,3.044-1.21,6.125-1.55,9.229c-1.28-2.03-2.12-4.021-2.32-5.53
	C1.2,19.44,1.42,18.581,2.03,17.991"/>
</svg>
